<?xml version="1.0" encoding="UTF-8"?>
<svg version="1.1" viewBox="0 0 1600 1600" width="1280" height="1280" xmlns="http://www.w3.org/2000/svg">
<path transform="translate(104 49.7)" d="m0 0c1.7-0.00574 1.7-0.00574 3.44-0.0116 3.77-0.0103 7.55-0.00635 11.3-0.00237 2.72-0.00326 5.43-0.00947 8.15-0.0155 6.6-0.0127 13.2-0.0145 19.8-0.0122 5.37 0.00179 10.7 2.33e-5 16.1-0.00422 0.766-5.95e-4 1.53-0.00119 2.32-0.0018 1.56-0.00121 3.11-0.00243 4.67-0.00364 14.6-0.0109 29.1-0.00872 43.7-0.00262 13.3 0.00517 26.6-0.00608 39.9-0.0251 13.7-0.0194 27.4-0.0276 41.1-0.0239 7.67 0.00191 15.3-5.22e-4 23-0.0147 6.53-0.012 13.1-0.0133 19.6-0.00121 3.33 0.00586 6.65 0.00543 9.98-5e-3 35.6-0.104 35.6-0.104 47.2 9.38 0.607 0.437 1.21 0.874 1.84 1.32 2.66 1.99 4.04 3.28 5.04 6.49 0.0619 1.08 0.0619 1.08 0.125 2.19h2c4.43 10.2 8.52 20.4 11.9 31 0.764 2.18 1.62 4.32 2.54 6.44 2.03 4.77 3.56 9.65 5.15 14.6 0.995 3 2.13 5.91 3.32 8.84 2.44 6.01 4.42 12.2 6.41 18.3 1.71 5.21 3.59 10.3 5.66 15.4 1.97 4.96 3.63 10 5.34 15.1 1.69 4.92 3.6 9.65 5.76 14.4 1.14 2.62 1.97 5.28 2.76 8.03 3.12 10.5 6.57 20.9 11.2 30.8 1.6 3.83 2.67 7.82 3.84 11.8 1.47 4.65 3.28 9.14 5.13 13.6 0.953 2.78 0.953 2.78 0.953 6.78h2c0.219 0.741 0.438 1.48 0.664 2.25 2.43 8.06 5.13 16 7.97 23.9 0.456 1.28 0.912 2.56 1.37 3.85 0.389 1.09 0.779 2.19 1.18 3.32 0.82 2.68 0.82 2.68 0.82 5.68h2c0.266 0.88 0.531 1.76 0.805 2.67 0.53 1.74 0.53 1.74 1.07 3.52 0.348 1.15 0.696 2.3 1.05 3.48 0.991 3.26 0.991 3.26 2.2 6.01 0.867 2.32 0.867 2.32 0.867 6.32h2c0.315 1.04 0.629 2.08 0.953 3.15 2.12 6.92 4.28 13.7 7.07 20.4 1.89 4.73 3.4 9.6 4.97 14.4 0.369 1.05 0.737 2.09 1.12 3.17 0.883 2.83 0.883 2.83 0.883 5.83h2c0.266 0.88 0.531 1.76 0.805 2.67 0.53 1.74 0.53 1.74 1.07 3.52 0.348 1.15 0.696 2.3 1.05 3.48 0.991 3.26 0.991 3.26 2.2 6.01 0.867 2.32 0.867 2.32 0.867 6.32h2c0.315 1.04 0.629 2.08 0.953 3.15 2.12 6.93 4.29 13.7 7.08 20.4 1.46 3.67 2.64 7.41 3.84 11.2 0.935 2.7 1.95 5.32 3.03 7.96 2.46 6.08 4.45 12.3 6.45 18.5 1.66 5.09 3.52 9.97 5.79 14.8 1.27 2.89 2 5.91 2.85 8.94 0.609 1.57 1.24 3.13 1.88 4.69 1.53 3.73 2.87 7.48 4.12 11.3 1.21 3.71 2.5 7.33 4 10.9 1.55 3.76 2.78 7.54 3.94 11.4 1.58 5.27 3.48 10.3 5.72 15.3 1.18 2.94 2.2 5.88 3.2 8.89 2.17 6.59 4.58 13.1 7.02 19.6 3.23 8.63 6.38 17.3 9.15 26.1 1.12 3.51 2.4 6.84 3.93 10.2 2.16 4.75 3.77 9.6 5.36 14.6 2.21 6.77 4.54 13.4 7.19 20.1 2.93 7.35 5.48 14.8 7.94 22.3 2.88 8.77 6.01 17.5 9.5 26 2.8 6.88 5.15 13.9 7.41 20.9 1.37 4.19 2.81 8.25 4.64 12.3 2.63 5.73 4.44 11.7 6.36 17.7 1.65 5.09 3.53 9.94 5.76 14.8 1.18 2.68 2.02 5.4 2.83 8.21 1.8 6.08 3.9 12 6.11 17.9 0.953 2.9 0.953 2.9 0.953 5.9h2c0.311 1.2 0.311 1.2 0.629 2.43 2.12 7.82 4.72 15.3 7.73 22.8 1.94 4.88 3.71 9.77 5.33 14.8 1.61 4.94 3.36 9.74 5.35 14.5 1.1 2.81 2.04 5.65 2.96 8.52 1.16 3.57 2.41 6.98 4 10.4 2.18 4.7 3.62 9.58 5.07 14.5 0.866 2.99 0.866 2.99 2.05 5.66 0.883 2.36 0.883 2.36 0.883 6.36h2c0.315 1.05 0.629 2.1 0.953 3.18 2.03 6.7 4.06 13.2 7.07 19.5 1.69 3.98 2.83 8.13 4.04 12.3 0.866 2.99 0.866 2.99 2.05 5.66 0.883 2.36 0.883 2.36 0.883 6.36h2c0.266 0.88 0.531 1.76 0.805 2.67 0.353 1.16 0.706 2.32 1.07 3.52l1.05 3.48c0.991 3.26 0.991 3.26 2.2 6.01 0.867 2.32 0.867 2.32 0.867 6.32h2c0.315 1.04 0.629 2.08 0.953 3.15 2.12 6.93 4.29 13.7 7.08 20.4 1.5 3.77 2.71 7.63 3.96 11.5 0.911 2.67 1.92 5.26 3 7.87 1.55 3.76 2.78 7.54 3.94 11.4 1.61 5.39 3.61 10.5 5.84 15.7 1.63 3.96 2.93 8 4.24 12.1 1.23 3.63 2.7 7.13 4.25 10.6 0.824 2.53 0.865 4.61 0.734 7.25h2c0.315 1.05 0.629 2.1 0.953 3.18 3.04 10.1 3.04 10.1 7.09 19.7 1.07 2.31 1.9 4.67 2.77 7.07 3.95 9.88 11.4 17.9 21.1 22.3 10.6 3.72 22.4 4.85 32.8-0.0547 6.64-3.69 11.6-7.29 16.3-13.3h2c0.0825-0.66 0.165-1.32 0.25-2 0.794-3.17 2.14-5.76 3.65-8.64 1.69-3.62 2.81-7.4 4.03-11.2 1.08-3.16 2.31-6.2 3.63-9.27 1.87-4.38 3.33-8.71 4.62-13.3 1.29-4.06 3.02-7.92 4.73-11.8 1.02-2.6 1.64-5.01 2.09-7.76h2c0.0825-1.13 0.165-2.27 0.25-3.44 0.511-4.12 1.87-7.3 3.64-11 1.7-3.93 2.82-8.02 3.98-12.1 0.886-2.68 1.86-5.1 3.03-7.66 2.26-4.97 3.98-10.1 5.66-15.2 0.291-0.886 0.581-1.77 0.881-2.68 0.574-1.75 1.15-3.5 1.72-5.25 1.26-3.86 2.55-7.71 3.84-11.6h2l0.293-2.93c0.67-4.67 2.32-8.88 4.02-13.3 0.639-1.69 1.28-3.38 1.91-5.07 0.307-0.814 0.614-1.63 0.931-2.47 1.08-2.92 2.07-5.87 3.03-8.84 1.43-4.38 3.06-8.62 4.81-12.9 1.46-3.75 2.67-7.58 3.88-11.4 0.911-2.55 1.91-4.94 3.04-7.39 2.18-4.84 3.84-9.77 5.46-14.8 2.7-8.26 5.61-16.4 8.71-24.5 5.95-15.7 11.7-31.4 17.2-47.3 2.76-7.95 5.59-15.9 8.78-23.7 1.09-2.82 2.03-5.68 2.96-8.56 1.14-3.51 2.36-6.85 3.94-10.2 2.23-4.8 3.68-9.82 5.2-14.9 1.34-4.39 2.93-8.47 4.89-12.6 1.67-3.93 2.75-8.05 3.96-12.1 0.852-2.66 1.81-5.1 3-7.62 1.66-3.53 2.83-7.07 3.94-10.8 1.64-5.54 3.67-10.8 6.01-16 1.01-2.56 1.6-4.95 2.05-7.66h2c0.0825-1.13 0.165-2.27 0.25-3.44 0.511-4.12 1.87-7.3 3.65-11 1.26-2.9 2.15-5.82 3.04-8.85 1.26-4.25 2.67-8.3 4.44-12.4 2.51-5.8 4.49-11.7 6.39-17.7 1.21-3.78 2.55-7.4 4.2-11 2.18-4.77 3.8-9.65 5.4-14.6 2.7-8.26 5.61-16.4 8.71-24.5 5.33-14 10.5-28.1 15.4-42.3 2.75-7.93 5.66-15.8 8.58-23.7 2.39-6.45 4.77-12.9 7.14-19.4 0.643-1.75 1.29-3.49 1.93-5.24 1.69-4.61 3.29-9.24 4.81-13.9 1.16-3.54 2.42-6.93 4-10.3 2.17-4.67 3.54-9.51 5-14.4 0.852-2.66 1.81-5.1 3-7.62 1.66-3.53 2.83-7.07 3.94-10.8 1.64-5.54 3.67-10.8 6.01-16 1.01-2.56 1.6-4.95 2.05-7.66h2c0.124-1.7 0.124-1.7 0.25-3.44 0.511-4.12 1.87-7.3 3.65-11 1.26-2.9 2.15-5.82 3.04-8.85 1.26-4.25 2.67-8.3 4.44-12.4 2.51-5.8 4.49-11.7 6.39-17.7 1.21-3.78 2.55-7.4 4.2-11 2.18-4.77 3.8-9.65 5.4-14.6 2.7-8.26 5.61-16.4 8.71-24.5 5.33-14 10.5-28.1 15.4-42.3 2.22-6.41 4.55-12.8 6.91-19.1 1.98-5.34 3.88-10.7 5.75-16.1 1.47-4.22 2.96-8.39 4.88-12.4 2.2-4.69 3.59-9.62 5.08-14.6 1.34-4.39 2.93-8.47 4.89-12.6 1.67-3.92 2.81-8.01 4.02-12.1 1.22-4.09 2.58-8.13 3.95-12.2h2c0.0825-1.13 0.165-2.27 0.25-3.44 0.514-4.26 1.99-7.66 3.83-11.5 1.04-2.32 1.6-4.54 1.92-7.05h2c0.0825-1.13 0.165-2.27 0.25-3.44 0.511-4.12 1.87-7.29 3.64-11 1.75-4.01 2.91-8.18 4.16-12.4 1.22-4.09 2.58-8.13 3.95-12.2h2c0.33-2.64 0.66-5.28 1-8h2c0.174-1.3 0.174-1.3 0.352-2.62 0.655-3.41 1.66-6.25 3.02-9.44 0.42-1 0.84-2 1.27-3.04 1.3-2.78 2.61-5.37 4.35-7.9h2c0.247-0.619 0.495-1.24 0.75-1.88 1.46-2.48 2.63-3.08 5.25-4.12v-2c1.83-0.969 3.66-1.92 5.5-2.88 1.02-0.534 2.04-1.07 3.09-1.62 7.48-3.31 14.2-3.8 22.3-3.77 1.07-0.00383 2.15-0.00765 3.25-0.0116 3.58-0.0103 7.17-0.00634 10.8-0.00237 2.57-0.00435 5.15-0.00953 7.72-0.0155 6.26-0.0127 12.5-0.0145 18.8-0.0122 5.1 0.00179 10.2 2.65e-5 15.3-0.00422 0.727-5.95e-4 1.45-0.00119 2.2-0.0018 1.48-0.00121 2.95-0.00243 4.43-0.00364 13.8-0.0109 27.7-0.00872 41.5-0.00262 12.6 0.00516 25.3-0.00606 37.9-0.0251 13-0.0194 26-0.0276 39-0.0239 7.28 0.00191 14.6-5.07e-4 21.9-0.0147 6.86-0.0132 13.7-0.0106 20.6 0.00241 2.51 0.00235 5.01-3.26e-4 7.52-0.00862 36.5-0.112 36.5-0.112 46.9 7.95 1.58 1.18 1.58 1.18 3.19 2.38 0.741 0.679 1.48 1.36 2.25 2.06v2h2c0.66 1.65 1.32 3.3 2 5h2c5.86 10.9 7.09 22.6 3.75 34.5-1.41 3.93-3.14 7.73-4.9 11.5-0.984 2.29-1.53 4.51-1.85 6.98h-2c-0.121 0.873-0.242 1.75-0.366 2.65-0.615 3.25-1.52 5.97-2.78 9.02-0.43 1.06-0.86 2.12-1.3 3.21-0.451 1.09-0.901 2.18-1.37 3.31-3.23 7.89-6.34 15.8-9.19 23.8h-2c0.124 0.959 0.124 0.959 0.25 1.94-0.296 3.63-1.49 6.04-3.03 9.3-2.42 5.45-4.27 11.1-6.22 16.8h-2c-0.0619 0.908-0.124 1.82-0.188 2.75-0.825 5.77-3.49 11-5.81 16.2-2.49 5.85-4.93 11.7-7.06 17.7-1.74 4.89-3.78 9.59-5.94 14.3-1.61 3.61-3.09 7.18-4.31 10.9-2.99 9.17-6.14 18.4-10.7 26.9-1.94 4.11-3.29 8.46-4.78 12.7-0.957 2.65-1.97 5.19-3.15 7.75-1.81 3.93-3.32 7.94-4.81 12-2.28 6.21-4.77 12.3-7.38 18.4-2.99 6.99-5.67 14-7.88 21.2h-2c-0.115 0.842-0.229 1.68-0.348 2.55-0.704 3.72-1.8 7.08-3.09 10.6-0.648 1.82-0.648 1.82-1.31 3.67-1.25 3.14-1.25 3.14-3.25 6.14-0.385 1.66-0.728 3.32-1 5h-2c-0.0619 0.908-0.124 1.82-0.188 2.75-0.825 5.77-3.49 11-5.81 16.2-2.49 5.85-4.93 11.7-7.06 17.7-1.74 4.89-3.78 9.6-5.94 14.3-1.8 3.95-3.35 7.68-4 12h-2c-0.0825 0.969-0.165 1.94-0.25 2.94-0.555 3.9-1.98 7.07-3.65 10.6-1.15 2.55-2.11 5.12-3.04 7.75-1.37 3.85-2.84 7.62-4.44 11.4-2.04 4.81-3.89 9.66-5.69 14.6-1.76 4.77-3.63 9.37-6.02 13.9-2.02 4.13-3.39 8.56-4.92 12.9-0.988 2.73-1.99 5.46-3 8.19-0.237 0.653-0.474 1.31-0.718 1.98-1.24 3.35-2.6 6.53-4.25 9.7-2.33 4.55-3.92 9.29-5.53 14.1-1.87 5.64-3.87 11-6.62 16.3-1.11 2.19-1.96 4.42-2.76 6.74-6.97 19.7-6.97 19.7-11.1 28.7-1.27 2.89-2.38 5.82-3.5 8.77-1.39 3.66-2.8 7.26-4.44 10.8-2.18 4.78-3.96 9.69-5.78 14.6-1.51 4.06-3.09 8.08-4.78 12.1-3.47 8.2-6.68 16.6-9.5 25h-2c0.0619 1.14 0.0619 1.14 0.125 2.31-0.125 2.69-0.125 2.69-2.12 5.69-0.704 1.99-1.37 3.99-2 6-4.63 13.6-4.63 13.6-8.04 19.9-1.23 2.62-2.08 5.3-2.96 8.05-1.09 3.4-2.19 6.6-3.88 9.75-1.97 3.69-3.4 7.53-4.84 11.4-2.16 5.82-4.37 11.6-6.65 17.4-0.279 0.705-0.558 1.41-0.845 2.14-1.14 2.87-2.28 5.75-3.42 8.62-0.85 2.14-1.7 4.29-2.55 6.43-0.255 0.641-0.51 1.28-0.773 1.94-1.48 3.73-2.82 7.48-4.05 11.3h-2l-0.25 2.94c-0.672 4.75-2.7 8.77-4.75 13.1-1.81 3.94-3.35 7.68-4 12h-2c-0.0619 0.908-0.124 1.82-0.188 2.75-0.825 5.77-3.49 11-5.81 16.2-3.2 7.48-6.18 15-8.95 22.7-1.13 3.07-2.23 5.61-4.05 8.34-0.694 1.99-1.36 3.99-2 6-0.985 2.67-1.99 5.34-3 8-0.384 1.02-0.768 2.04-1.16 3.09-3.65 9.62-3.65 9.62-5.77 14.2-1.79 3.93-3.31 7.95-4.81 12-2.25 6.08-4.59 12.1-7 18.1-0.33 0.822-0.66 1.64-1 2.49-1.5 3.73-3 7.45-4.5 11.2-7.21 17.8-7.21 17.8-13.7 35.9h-2c-0.0619 0.908-0.124 1.82-0.188 2.75-0.662 4.74-2.64 8.87-4.54 13.2-1.67 3.95-2.98 7.94-4.28 12h-2c-0.0619 0.908-0.124 1.82-0.188 2.75-0.748 5.11-2.94 9.58-4.98 14.3-1.7 4-3.29 8.05-4.9 12.1-0.658 1.65-1.32 3.3-1.97 4.95-1.01 2.54-2.02 5.08-3.03 7.62-0.348 0.876-0.696 1.75-1.06 2.65-0.313 0.788-0.625 1.58-0.947 2.39-0.922 2.24-1.91 4.44-2.93 6.64-1.59 3.5-2.83 7.03-4 10.7-1.35 4.19-2.93 7.94-5 11.8-1.24 2.65-2.11 5.34-3 8.12-1.11 3.45-2.23 6.68-3.94 9.88-2.45 4.63-4.05 9.53-5.78 14.5-2.67 7.58-5.59 15.1-8.72 22.5-1.99 4.71-3.8 9.46-5.56 14.2-2.06 5.57-4.32 11-6.85 16.4-1.6 3.59-2.88 7.27-4.19 11-0.89 2.41-1.89 4.72-2.96 7.05-1.55 3.4-2.79 6.82-3.94 10.4-1.66 5.11-3.6 10-5.71 15-1.53 3.61-2.97 7.25-4.42 10.9-2.18 5.5-4.49 10.9-6.94 16.3-1.9 4.27-3.54 8.56-5 13-2.57 7.52-5.3 14.8-8.68 22-1.89 4.26-3.48 8.63-5.09 13-1.85 5-3.85 9.91-5.94 14.8-1.87 4.56-3.56 9.18-5.24 13.8-1.13 3.07-2.23 5.61-4.05 8.34-0.385 1.66-0.728 3.32-1 5h-2l-0.25 2.94c-0.555 3.9-1.98 7.07-3.65 10.6-1.15 2.55-2.11 5.12-3.04 7.75-1.37 3.85-2.84 7.62-4.44 11.4-2 4.73-3.84 9.5-5.62 14.3-2.1 5.68-4.34 11.3-6.71 16.9-1.54 3.77-2.94 7.57-4.35 11.4-1.73 4.7-3.58 9.21-5.94 13.6-1.93 4.1-3.28 8.44-4.77 12.7-1.26 3.49-2.71 6.83-4.26 10.2-1.48 3.38-2.67 6.85-3.9 10.3-1.07 2.89-2.23 5.72-3.43 8.55-2 4.73-3.84 9.5-5.62 14.3-1.74 4.71-3.54 9.38-5.5 14-2.8 6.6-5.28 13.3-7.77 20-1.23 3.33-2.48 6.65-3.73 9.97h-2c-0.098 0.856-0.196 1.71-0.297 2.59-1.68 8.15-6.82 16.5-12.7 22.4h-2v2c-6.63 4-6.63 4-10 4v2c-3.93 0.714-7.73 1.16-11.7 1.31-1.1 0.0413-2.19 0.0826-3.33 0.125-1.18 0.0387-2.35 0.0775-3.56 0.117-1.86 0.0632-1.86 0.0632-3.76 0.128-13.3 0.42-26.6 0.459-40 0.447-2.71 0.00136-5.41 0.00311-8.12 0.00531-6.5 0.00439-13 0.00351-19.5 5.87e-4 -5.29-0.00228-10.6-0.00256-15.9-0.00148-1.14 2.3e-4 -1.14 2.3e-4 -2.3 4.64e-4 -1.54 3.2e-4 -3.09 6.44e-4 -4.63 9.73e-4 -14.4 0.00283-28.7-3.99e-4 -43.1-0.0058-12.3-0.00448-24.6-0.00368-36.9 9.19e-4 -14.4 0.00536-28.7 0.00746-43.1 0.00439-1.53-3.19e-4 -3.06-6.33e-4 -4.59-9.43e-4 -0.753-1.54e-4 -1.51-3.09e-4 -2.28-4.68e-4 -5.28-8.6e-4 -10.6 5.87e-4 -15.9 0.00295-6.43 0.00281-12.9 0.00203-19.3-0.00328-3.28-0.00262-6.55-0.00313-9.83-3.51e-4 -3.56 0.00274-7.12-7.08e-4 -10.7-0.00568-1.02 0.00223-2.05 0.00446-3.1 0.00676-13.9-0.0374-24.6-1.33-35.8-10.3-2.75-2.81-2.75-2.81-2.75-5.81h-2c-0.33-1.65-0.66-3.3-1-5h-2c-0.33-1.98-0.66-3.96-1-6h-2c-0.82-2.04-1.63-4.08-2.44-6.12-0.452-1.14-0.905-2.27-1.37-3.45-1.1-3.17-1.75-6.11-2.19-9.43h-2c-0.315-0.978-0.629-1.96-0.953-2.96-2.11-6.49-4.26-12.8-7.13-19-2.14-4.66-3.91-8.79-3.91-14h-2c-0.315-0.895-0.629-1.79-0.953-2.71-0.428-1.21-0.856-2.42-1.3-3.66-0.337-0.952-0.337-0.952-0.68-1.92-1.64-4.6-3.43-9.13-5.37-13.6-0.699-2.09-0.699-2.09-0.699-6.09h-2c-0.315-0.978-0.629-1.96-0.953-2.96-2.11-6.49-4.26-12.8-7.13-19-2.14-4.66-3.91-8.79-3.91-14h-2c-0.315-0.895-0.629-1.79-0.953-2.71-0.428-1.21-0.856-2.42-1.3-3.66-0.337-0.952-0.337-0.952-0.68-1.92-1.64-4.6-3.43-9.13-5.37-13.6-0.699-2.09-0.699-2.09-0.699-6.09h-2c-0.315-0.895-0.629-1.79-0.953-2.71-0.428-1.21-0.856-2.42-1.3-3.66-0.337-0.952-0.337-0.952-0.68-1.92-1.64-4.6-3.43-9.13-5.37-13.6-0.699-2.09-0.699-2.09-0.699-6.09h-2c-0.291-0.837-0.583-1.67-0.883-2.54-2.7-7.68-5.59-15.2-8.64-22.8-1.4-3.48-2.76-6.98-4.1-10.5-2.51-6.56-5.11-13.1-7.75-19.6-4.26-10.6-8.28-21.2-12.2-31.9-2.22-6.03-4.42-11.9-7.44-17.6-1.9-4.01-3.24-8.25-4.7-12.4-2.52-7.18-5.17-14.3-8.35-21.2-1.53-3.36-2.74-6.74-3.88-10.2-1.65-5.09-3.6-9.97-5.7-14.9-1.9-4.6-3.61-9.27-5.31-14-1.13-3.07-2.23-5.61-4.06-8.34-0.704-1.99-1.37-3.99-2-6-3.48-10.2-3.48-10.2-8.04-19.9-1.69-3.59-2.75-7.4-3.96-11.2-1.09-3.13-2.46-5.93-4.01-8.84-0.988-2.04-1.69-4.02-2.37-6.18-1.61-4.95-3.53-9.74-5.5-14.6-2.84-7-5.49-14-7.98-21.2-1.49-4.12-3.18-8.13-4.89-12.2-1.31-3.14-2.54-6.31-3.75-9.5-1.61-4.24-3.3-8.44-5.06-12.6-1.61-3.82-3.11-7.66-4.5-11.6-1.15-3.24-2.38-6.38-3.81-9.5-2.8-6.13-5.06-12.5-7.38-18.8-0.52-1.4-1.05-2.79-1.6-4.17-2.15-5.52-2.15-5.52-2.15-8.83h-2c-0.33-2.64-0.66-5.28-1-8h-2c-1.01-2.77-2-5.54-3-8.31-0.286-0.786-0.572-1.57-0.867-2.38-0.271-0.757-0.541-1.51-0.82-2.29-0.251-0.696-0.503-1.39-0.762-2.11-0.551-1.9-0.551-1.9-0.551-4.9h-2c-0.33-2.64-0.66-5.28-1-8h-2c-0.371-1.42-0.371-1.42-0.75-2.88-1.97-6.86-4.87-13.4-7.88-19.8-1.87-4.05-3.18-8.01-4.38-12.3-0.933-2.2-1.93-4.37-2.93-6.55-1.5-3.43-2.72-6.95-3.95-10.5-0.93-2.45-1.94-4.8-3.03-7.18-2.55-5.67-4.48-11.5-6.45-17.4-1.61-4.72-3.43-9.11-5.73-13.5-1.37-2.76-2.36-5.62-3.36-8.53-2.9-8.31-5.83-16.6-9.5-24.6-2.21-4.85-4.03-9.84-5.87-14.8-1.2-3.25-2.44-6.43-3.88-9.59-1.32-3.26-1.32-3.26-1.32-7.26h-2c-0.371-1.16-0.743-2.31-1.12-3.5-1.06-3.22-2.2-6.39-3.41-9.55-0.271-0.711-0.542-1.42-0.822-2.15-0.549-1.43-1.1-2.86-1.66-4.29-1.14-2.98-1.98-5.28-1.98-8.5h-2c-0.371-1.16-0.743-2.31-1.12-3.5-1.06-3.22-2.2-6.39-3.41-9.55-0.271-0.711-0.542-1.42-0.822-2.15-0.549-1.43-1.1-2.86-1.66-4.29-1.14-2.98-1.98-5.28-1.98-8.5h-2c-0.186-0.543-0.372-1.09-0.563-1.65-4.86-14.2-4.86-14.2-10.6-28-0.848-2.31-0.848-2.31-0.848-6.31h-2c-0.315-0.895-0.629-1.79-0.953-2.71-0.428-1.21-0.856-2.42-1.3-3.66-0.225-0.635-0.449-1.27-0.68-1.92-1.64-4.6-3.43-9.13-5.37-13.6-0.699-2.09-0.699-2.09-0.699-6.09h-2c-0.315-0.895-0.629-1.79-0.953-2.71-0.428-1.21-0.856-2.42-1.3-3.66-0.225-0.635-0.449-1.27-0.68-1.92-1.64-4.6-3.43-9.13-5.37-13.6-0.699-2.09-0.699-2.09-0.699-6.09h-2c-0.291-0.837-0.583-1.67-0.883-2.54-2.7-7.68-5.59-15.2-8.64-22.8-1.4-3.48-2.76-6.98-4.1-10.5-2.51-6.56-5.11-13.1-7.75-19.6-4.26-10.6-8.28-21.2-12.2-31.9-2.22-6.02-4.41-11.9-7.43-17.6-1.93-4.09-3.29-8.41-4.78-12.7-1.28-3.61-2.68-7.14-4.12-10.7-1.4-3.52-2.71-7.07-4.03-10.6-2.52-6.78-5.25-13.5-8.06-20.1-2.87-6.92-5.41-13.9-7.85-21-1.07-3.12-1.07-3.12-3.15-6-0.704-1.99-1.37-3.99-2-6-3.48-10.2-3.48-10.2-8.04-19.9-1.69-3.59-2.75-7.4-3.96-11.2-1.09-3.13-2.46-5.94-4.02-8.86-0.959-1.97-1.65-3.88-2.3-5.97-1.97-6.04-4.27-11.9-6.56-17.9-0.422-1.1-0.843-2.2-1.28-3.33-2.48-6.42-5.06-12.8-7.72-19.1-1.49-3.6-2.85-7.25-4.19-10.9-1.57-4.25-3.16-8.45-5.06-12.6-1.56-3.37-2.74-6.78-3.88-10.3-1.11-3.43-2.24-6.63-3.94-9.81-2.39-4.52-3.95-9.28-5.62-14.1-1.9-5.42-4.05-10.7-6.2-16.1-2.24-5.63-2.24-5.63-2.24-8.95h-2c-0.33-2.64-0.66-5.28-1-8h-2c-1.01-2.77-2-5.54-3-8.31-0.286-0.786-0.572-1.57-0.867-2.38-0.406-1.14-0.406-1.14-0.82-2.29-0.251-0.696-0.503-1.39-0.762-2.11-0.551-1.9-0.551-1.9-0.551-4.9h-2c-0.33-2.64-0.66-5.28-1-8h-2c-0.191-0.564-0.382-1.13-0.579-1.71-0.884-2.6-1.78-5.2-2.67-7.79-0.3-0.887-0.601-1.77-0.91-2.69-1.69-4.9-3.55-9.53-6-14.1-1.36-2.77-2.01-5.75-2.84-8.72-0.932-2.2-1.93-4.37-2.93-6.55-1.5-3.43-2.72-6.95-3.95-10.5-0.928-2.45-1.94-4.79-3.02-7.17-2.22-4.94-3.99-9.99-5.73-15.1-0.594-1.75-1.19-3.49-1.79-5.24-0.257-0.76-0.515-1.52-0.78-2.3-0.767-2.18-0.767-2.18-1.91-4.24-0.901-1.91-0.901-1.91-0.901-4.91h-2c-0.557-1.73-0.557-1.73-1.12-3.5-1.06-3.22-2.2-6.39-3.41-9.55-0.271-0.711-0.542-1.42-0.822-2.15-0.549-1.43-1.1-2.86-1.66-4.29-1.14-2.98-1.98-5.28-1.98-8.5h-2c-0.191-0.548-0.382-1.1-0.579-1.66-0.89-2.55-1.78-5.1-2.67-7.65-0.319-0.915-0.638-1.83-0.967-2.77-1.67-4.78-3.38-9.55-5.16-14.3-1.29-3.56-2.3-6.83-2.62-10.6-0.0632-0.724-0.126-1.45-0.191-2.2-0.541-11.1 3.86-19.7 11.2-27.8 2.09-2.25 2.09-2.25 4-4h2v-2h3v-2c1.26-0.642 2.54-1.26 3.81-1.88 0.708-0.348 1.42-0.696 2.14-1.05 8.4-2.95 17-3.36 25.8-3.33z" fill="#000002"/>
</svg>
